<svg xmlns="http://www.w3.org/2000/svg" viewBox="0 0 229.45 99.68"><defs><style>.cls-1{fill:#bf0008;}.cls-2{fill:#d78a44;}.cls-3{fill:#fff;}</style></defs><g id="レイヤー_2" data-name="レイヤー 2"><g id="レイヤー_1-2" data-name="レイヤー 1"><path class="cls-1" d="M0,43.93V56.41H3V29.65a12,12,0,0,1,12-12v-3H0Z"/><path class="cls-1" d="M23.06,14.65v3a12,12,0,0,1,12,12V56.41h3V14.65Z"/><path class="cls-2" d="M115.72,35.79v15H100.21v-3h6.45a6,6,0,0,0,0-12H90v-3h25.69v3Z"/><path class="cls-2" d="M15,96.68v3H0V61.35H3V84.68A12,12,0,0,0,15,96.68Z"/><path class="cls-2" d="M15,96.68v3H0V61.35H3V84.68A12,12,0,0,0,15,96.68Z"/><path class="cls-2" d="M61.11,96.68v3h-15V61.35h3V84.68A12,12,0,0,0,61.11,96.68Z"/><path class="cls-2" d="M23.06,64.35v-3h15V99.68h-3V76.35A12,12,0,0,0,23.06,64.35Z"/><path class="cls-2" d="M168.49,96.21v3h-15V60.88h3V84.21A12,12,0,0,0,168.49,96.21Z"/><path class="cls-2" d="M176.19,63.88v-3h15V99.21h-3V75.88A12,12,0,0,0,176.19,63.88Z"/><circle class="cls-1" cx="134.45" cy="62.41" r="6"/><path class="cls-2" d="M92.43,63.91H82V56.39H79v7.52H64v3H79V84.68a12,12,0,0,1-12,12v3H82V66.91h10.4Z"/><path class="cls-2" d="M117.72,60.91h-14.5V50.79h-3V60.91H92.43v3h7.79v23h3v-11a12,12,0,0,1,12-12h8.23v-3Z"/><path class="cls-2" d="M135.45,75.68h-24v24h24v-9a12,12,0,0,1,12-12h6.26v-3Zm-12,21a9,9,0,1,1,9-9A9,9,0,0,1,123.45,96.68Z"/><path class="cls-2" d="M142.83,14.64H110.14v3h14.69v33h18v-3a15,15,0,0,1,0-30h3.66v-3Z"/><rect class="cls-2" x="150.27" y="14.64" width="3" height="3"/><circle class="cls-1" cx="32.54" cy="6" r="6"/><circle class="cls-2" cx="46.88" cy="6" r="6"/><circle class="cls-2" cx="92.43" cy="6" r="6"/><circle class="cls-1" cx="92.43" cy="20.11" r="6"/><rect class="cls-2" x="167.18" y="19" width="25.3" height="3"/><rect class="cls-2" x="173.8" y="18.61" width="13.43" height="3" transform="translate(200.63 -160.4) rotate(90)"/><path class="cls-2" d="M165.27,47.64v3h-15v-36h3v21A12,12,0,0,0,165.27,47.64Z"/><path class="cls-2" d="M167.83,26.64v24h24v-24Zm12,21a9,9,0,1,1,9-9A9,9,0,0,1,179.83,47.64Z"/><path class="cls-1" d="M46,14.65v18h3a15,15,0,0,1,30,0v5.76A15,15,0,0,1,74.64,49,15.64,15.64,0,0,1,73,50.43a15.18,15.18,0,0,1-3.82,2.07c-.46.17-.93.31-1.41.44a15,15,0,0,1-3.75.47v3H82V14.65Z"/><rect class="cls-1" x="199.45" y="13.4" width="30" height="86.28"/><path class="cls-3" d="M216,82.44v7.18c0,.82.18,1.16,1.06,1.16h6V75.87h2.18V93.15h-8.82c-1.78,0-2.51-.76-2.51-2.68V82.55c0-3.29-1.07-4.45-3.2-4.45h-.45c-2.18,0-3.24,1.45-3.24,4.32V93.15H204.8V82.49c0-4.41,1.66-6.78,5.34-6.78h.55C214.48,75.71,216,77.92,216,82.44Z"/><path class="cls-3" d="M225.17,62.5v2.37c0,5.78-3,7.89-7.39,7.89h-5.56c-4.43,0-7.47-2.11-7.47-7.89V62.5c0-5.79,3-7.84,7.47-7.84h5.56C222.19,54.66,225.17,56.71,225.17,62.5ZM212.22,57c-3.66,0-5.26,2-5.26,5.57v2.32c0,3.6,1.6,5.52,5.26,5.52h5.56c3.64,0,5.21-1.92,5.21-5.52V62.55c0-3.6-1.57-5.57-5.21-5.57Z"/><path class="cls-3" d="M216,40.82V48c0,.82.18,1.16,1.06,1.16h6V34.25h2.18V51.53h-8.82c-1.78,0-2.51-.76-2.51-2.69V40.93c0-3.29-1.07-4.45-3.2-4.45h-.45c-2.18,0-3.24,1.45-3.24,4.32V51.53H204.8V40.87c0-4.41,1.66-6.78,5.34-6.78h.55C214.48,34.09,216,36.3,216,40.82Z"/><path class="cls-3" d="M225.17,23.48H207.49A.47.47,0,0,0,207,24v6.84H204.8v-7.5c0-1.63.73-2.29,2.13-2.29h18.24Z"/></g></g></svg>